<svg width="208" height="253" viewBox="0 0 208 253" fill="none" xmlns="http://www.w3.org/2000/svg"><g clip-path="url(#clip0_2_11)"><path d="M60.37 205.2C60.37 207.7 60.37 210.2 60.42 212.7C60.42 213.24 60.42 213.77 60.37 214.28V205.2Z" fill="#00DDCC"/><path d="M147.29 37.68V122.88C147.23 95.64 147.1 68.39 147.07 41.15C147.074 39.99 147.147 38.8312 147.29 37.68Z" fill="#00DDCC"/><path d="M147.06 125.43C147.201 124.587 147.278 123.735 147.29 122.88V202.54L105.55 164.37L84.55 145.22L71.91 133.6L66.29 128.47L64.22 126.58L64.07 126.45C63.56 126.04 63.07 125.61 62.6 125.22C62.13 124.83 61.72 124.49 61.16 124.66C60.9635 124.732 60.7882 124.852 60.6502 125.009C60.5122 125.166 60.4158 125.356 60.37 125.56V50.56L60.8 50.95L69.37 58.7C73.88 62.7 78.43 66.7 82.93 70.7C89.33 76.4333 95.71 82.2 102.07 88C107.103 92.5733 112.13 97.1533 117.15 101.74C123.15 107.21 129.07 112.74 135.07 118.17C137.77 120.61 140.49 123 143.22 125.4C143.8 125.91 144.37 126.4 144.96 126.92C145.16 127.065 145.392 127.158 145.637 127.189C145.882 127.22 146.13 127.19 146.36 127.1C146.497 127.024 146.618 126.921 146.714 126.797C146.81 126.674 146.88 126.532 146.92 126.38C147 126 147 125.74 147.06 125.43Z" fill="#00B1A3"/><path d="M60.28 126C60.1667 126.909 60.1332 127.825 60.18 128.74C60.18 154.24 60.18 179.74 60.37 205.23V214.31C60.2603 216.475 59.678 218.59 58.6639 220.505C57.6498 222.421 56.2286 224.092 54.5 225.4C47.69 231.09 41.34 237.31 34.77 243.29C32.02 245.79 29.29 248.29 26.46 250.73C23.63 253.17 16.35 253.47 12.32 250.1C9.25361 247.439 6.39837 244.543 3.78001 241.44C1.46956 239.128 0.134448 236.017 0.0500126 232.75C0.0500126 232.03 -0.00998739 231.24 0.0500126 230.37C0.0500126 228.87 0.0500126 227.37 0.100013 225.86C0.150013 221.56 0.100013 217.25 0.100013 212.95V72.71C0.0913365 71.6382 0.219028 70.5696 0.480013 69.53C0.745321 68.6257 1.07964 67.7431 1.48001 66.89C2.04097 65.6367 2.71722 64.4382 3.50001 63.31L19.5 47.31L29.69 37.13C30.2322 36.582 30.8522 36.117 31.53 35.75C32.5177 35.1944 33.6116 34.8537 34.74 34.75C38.0867 34.1335 41.5432 34.7707 44.45 36.54C45.1955 36.995 45.8954 37.5207 46.54 38.11L60.37 50.53V125.53C60.3289 125.684 60.2989 125.841 60.28 126Z" fill="#00DDCC"/><path opacity="0.6" d="M60.28 126C60.3015 125.862 60.3315 125.725 60.37 125.59V205.2C60.22 179.7 60.23 154.2 60.18 128.71C60.135 127.805 60.1684 126.899 60.28 126Z" fill="#00DDCC"/><path d="M205.59 187.21L176.2 214.21C176.085 214.297 175.965 214.377 175.84 214.45L175.73 214.53L175.53 214.65C172.936 216.231 169.898 216.925 166.874 216.627C163.851 216.329 161.006 215.056 158.77 213L157 211.45L147.25 202.54V37.68C147.41 36.29 147.65 34.9 147.92 33.54C148.62 29.99 151.74 28.23 154.12 26.01C159.29 21.21 164.62 16.59 169.89 11.89C173.52 8.65 177.14 5.4 180.8 2.18C183.99 -0.630005 190.17 -0.490005 193.17 1.25C193.93 1.6938 194.63 2.23504 195.25 2.85999L198.63 6.12L201.36 8.72999L203.85 11.14C204.525 11.7628 205.123 12.4645 205.63 13.23C206.811 15.1731 207.401 17.4174 207.33 19.69C207.28 34.35 207.39 49.01 207.42 63.69C207.48 88.59 207.533 113.49 207.58 138.39C207.58 151.15 207.603 163.907 207.65 176.66C207.65 177.25 207.65 177.83 207.65 178.41C207.8 182.21 207.72 184.72 205.59 187.21Z" fill="#00DDCC"/></g><defs><clipPath id="clip0_2_11"><rect width="207.74" height="252.58" fill="white"/></clipPath></defs></svg>
