<svg width="192" height="192" viewBox="0 0 192 192" fill="none" xmlns="http://www.w3.org/2000/svg">
<g clip-path="url(#clip0_602_8)">
<path d="M192 0H0V192H192V0Z" fill="black"/>
<path d="M136 161H86V141H136V161Z" fill="white"/>
<path d="M77 90.9999H76.884V51H77V31H56V111H77V90.9999Z" fill="white"/>
<path d="M95.9109 31H86V51H95.9109C107.047 51 115.955 59.8888 115.955 70.9999C115.955 81.9999 107.047 90.9999 95.9109 90.9999H86V111H95.9109C118.071 111 136 93.111 136 70.9999C136 48.8888 118.071 31 95.9109 31Z" fill="white"/>
<path d="M56 122V161H76V122H56Z" fill="white"/>
</g>
<defs>
<clipPath id="clip0_602_8">
<rect width="192" height="192" fill="white"/>
</clipPath>
</defs>
</svg>
